<svg xmlns="http://www.w3.org/2000/svg" viewBox="0 0 24 24" id="latam-airlines">
  <path fill="#E91E63" d="M8.92 9.05s-.029-.178-.124-.265c-.096-.088-.268-.142-.268-.142-5.075-1.839-3.814-1.88-3.991.556 0 0-.009.165.23.535.239.37.805.276.805.276l3.348-.96zm7.945-3.395 2.479-1.389s.037-.24-.058-.327C19.157 3.821 8.314-.071 8.166.012c-.117.063-.087.081-.084 1.656-.103 1.096.915 1.236 8.783 3.987zm0 4.323 2.479-1.284s.053-.325-.043-.413C19.186 8.176 4.788 2.885 4.62 2.979c-.116.064-.086.082-.083 1.656 0 0-.001.344.237.714.239.37.627.465.627.465l11.464 4.164z"></path>
  <path fill="#3F51B5" d="M19.076 3.824s.145.022.267.141a.405.405 0 0 1 .124.265c-.004 1.632.059 2.093-.116 2.477-.11.242-.272.299-.272.299-5.557 2.042-11.961 4.376-11.273 4.009-3.46-1.246-3.191-.986-3.269-1.815-.504.855 2.285-.379 14.207-4.706 0 0 .544-.222.544-.447 0-.156-.212-.222-.212-.223zm0 4.323s.145.022.267.141a.405.405 0 0 1 .124.265c-.01 3.89 1.513 1.761-11.424 6.784v-2.635c10.925-3.99 11.245-3.954 11.245-4.332 0-.156-.212-.223-.212-.223zm-5.312 6.922c.2.2.129 1.996-.014 2.309-.11.242-.272.299-.272.299l-5.435 1.974v-2.635c5.312-1.937 5.59-2.078 5.721-1.947zm-3.289 5.499c.2.2.129 1.996-.014 2.309-.11.242-.272.299-.272.299l-2.146.812v-2.635c1.095-.417 2.273-.944 2.432-.785z"></path>
</svg>
